<?xml version="1.0" encoding="UTF-8" standalone="no"?>
<!-- Created with Inkscape (http://www.inkscape.org/) -->

<svg
   width="42.554874mm"
   height="55.561008mm"
   viewBox="0 0 42.554874 55.561008"
   version="1.1"
   id="svg1"
   xml:space="preserve"
   inkscape:version="1.3.1 (91b66b0783, 2023-11-16)"
   sodipodi:docname="logo Toved Black.svg"
   xmlns:inkscape="http://www.inkscape.org/namespaces/inkscape"
   xmlns:sodipodi="http://sodipodi.sourceforge.net/DTD/sodipodi-0.dtd"
   xmlns="http://www.w3.org/2000/svg"
   xmlns:svg="http://www.w3.org/2000/svg"><sodipodi:namedview
     id="namedview1"
     pagecolor="#ffffff"
     bordercolor="#000000"
     borderopacity="0.25"
     inkscape:showpageshadow="2"
     inkscape:pageopacity="0.0"
     inkscape:pagecheckerboard="0"
     inkscape:deskcolor="#d1d1d1"
     inkscape:document-units="mm"
     inkscape:zoom="1.4912879"
     inkscape:cx="-70.408941"
     inkscape:cy="228.32614"
     inkscape:window-width="1920"
     inkscape:window-height="1051"
     inkscape:window-x="-9"
     inkscape:window-y="-9"
     inkscape:window-maximized="1"
     inkscape:current-layer="layer1"
     showborder="true" /><defs
     id="defs1" /><g
     inkscape:label="modele"
     inkscape:groupmode="layer"
     id="layer1"
     transform="translate(-85.072435,-72.434901)"><path
       style="fill:#000000"
       d="m 93.491133,112.32084 -0.005,-15.67656 -4.162233,-2.39057 -4.16223,-2.39058 -0.071,-5.973502 c -0.0544,-4.57756 0.007,-6.036 0.26458,-6.24091 0.578,-0.46053 12.408123,-7.213817 12.636853,-7.213817 0.11951,0 3.175137,1.70478 6.790307,3.78839 10.9237,6.295897 17.27748,9.964797 20.13292,11.625457 l 2.71198,1.577232 v 6.12788 6.12789 l -6.31082,3.63283 c -3.47095,1.99805 -6.38798,3.63282 -6.48229,3.63282 -0.0943,0 -0.17148,-3.39328 -0.17148,-7.54062 0,-4.14735 0.0521,-7.54063 0.11583,-7.54063 0.0637,0 2.15014,1.18796 4.63654,2.63992 2.4864,1.45195 4.756,2.76583 5.04356,2.91972 0.51118,0.27358 0.52282,0.17966 0.52282,-4.21626 V 90.71346 L 123.857,90.06949 c -0.61847,-0.35418 -3.68433,-2.125302 -6.81303,-3.935822 -15.25514,-8.827887 -18.209467,-10.522427 -18.619687,-10.679837 -0.40566,-0.15567 -0.43719,0.20825 -0.37069,4.278467 l 0.0727,4.44862 1.71979,1.01135 c 0.945877,0.55625 2.881577,1.67109 4.301547,2.47743 l 2.58177,1.466072 -0.0682,15.76857 -0.0682,15.76857 -6.35,3.66076 c -3.492497,2.01341 -6.439287,3.66142 -6.548427,3.66224 -0.10914,8.2e-4 -0.20067,-7.05296 -0.2034,-15.67507 z"
       id="path1" /></g><g
     inkscape:groupmode="layer"
     id="layer2"
     inkscape:label="illus"
     transform="translate(-85.072435,-72.434901)" /></svg>
